<?xml version="1.0" encoding="UTF-8" standalone="no"?>
<svg width="800.000000" height="400.000000" xmlns="http://www.w3.org/2000/svg">
<rect width="100%" height="100%" fill="white"/>
<circle cx="400.000000" cy="50.000000" r="20.000000" fill="lightblue" stroke="black"/>
<text x="400.000000" y="55.000000" text-anchor="middle" font-size="12" font-weight="bold">6</text>
<line x1="400.000000" y1="70.000000" x2="0.000000" y2="90.000000" stroke="black"/>
<circle cx="0.000000" cy="110.000000" r="20.000000" fill="lightblue" stroke="black"/>
<text x="0.000000" y="115.000000" text-anchor="middle" font-size="12" font-weight="bold">5</text>
<line x1="0.000000" y1="130.000000" x2="-200.000000" y2="150.000000" stroke="black"/>
<circle cx="-200.000000" cy="170.000000" r="20.000000" fill="lightblue" stroke="black"/>
<text x="-200.000000" y="175.000000" text-anchor="middle" font-size="12" font-weight="bold">2</text>
<line x1="400.000000" y1="70.000000" x2="800.000000" y2="90.000000" stroke="black"/>
<circle cx="800.000000" cy="110.000000" r="20.000000" fill="lightblue" stroke="black"/>
<text x="800.000000" y="115.000000" text-anchor="middle" font-size="12" font-weight="bold">9</text>
<line x1="800.000000" y1="130.000000" x2="600.000000" y2="150.000000" stroke="black"/>
<circle cx="600.000000" cy="170.000000" r="20.000000" fill="lightblue" stroke="black"/>
<text x="600.000000" y="175.000000" text-anchor="middle" font-size="12" font-weight="bold">8</text>
<line x1="600.000000" y1="190.000000" x2="466.666667" y2="210.000000" stroke="black"/>
<circle cx="466.666667" cy="230.000000" r="20.000000" fill="lightblue" stroke="black"/>
<text x="466.666667" y="235.000000" text-anchor="middle" font-size="12" font-weight="bold">7</text>
<line x1="800.000000" y1="130.000000" x2="1000.000000" y2="150.000000" stroke="black"/>
<circle cx="1000.000000" cy="170.000000" r="20.000000" fill="lightblue" stroke="black"/>
<text x="1000.000000" y="175.000000" text-anchor="middle" font-size="12" font-weight="bold">15</text>
<line x1="1000.000000" y1="190.000000" x2="866.666667" y2="210.000000" stroke="black"/>
<circle cx="866.666667" cy="230.000000" r="20.000000" fill="lightblue" stroke="black"/>
<text x="866.666667" y="235.000000" text-anchor="middle" font-size="12" font-weight="bold">14</text>
<line x1="1000.000000" y1="190.000000" x2="1133.333333" y2="210.000000" stroke="black"/>
<circle cx="1133.333333" cy="230.000000" r="20.000000" fill="lightblue" stroke="black"/>
<text x="1133.333333" y="235.000000" text-anchor="middle" font-size="12" font-weight="bold">24</text>
</svg>